<?xml version="1.0" encoding="utf-8"?>
<!-- Generator: Adobe Illustrator 13.0.0, SVG Export Plug-In . SVG Version: 6.00 Build 14948)  -->
<!DOCTYPE svg PUBLIC "-//W3C//DTD SVG 1.1//EN" "http://www.w3.org/Graphics/SVG/1.1/DTD/svg11.dtd">
<svg version="1.1" id="Layer_1" xmlns="http://www.w3.org/2000/svg" xmlns:xlink="http://www.w3.org/1999/xlink" x="0px" y="0px"
	 width="444px" height="123px" viewBox="0.000244 0 444 123" enable-background="new 0.000244 0 444 123" xml:space="preserve">
<g id="Amiga">
	<g>
		<g>
			<g enable-background="new    ">
				<g enable-background="new    ">
					<g>
						<defs>
							<path id="SVGID_1_" d="M189.835205,43.617188l-2.68457-4.030273c0.107422,0.162109,0.290039,0.285156,0.537109,0.305176
								l2.68457,4.029785C190.125244,43.901855,189.942627,43.778809,189.835205,43.617188z"/>
						</defs>
						<clipPath id="SVGID_2_">
							<use xlink:href="#SVGID_1_"  overflow="visible"/>
						</clipPath>
						<g clip-path="url(#SVGID_2_)" enable-background="new    ">
							<path fill="#767273" d="M187.688721,39.89209l2.68457,4.029785c-0.24707-0.02002-0.430664-0.143066-0.537109-0.304688
								l-2.68457-4.030273C187.259033,39.75,187.44165,39.873047,187.688721,39.89209"/>
						</g>
					</g>
				</g>
				<g>
					<polygon fill="#787575" points="192.292236,40.826172 194.97583,44.855957 190.373291,43.921875 187.688721,39.89209 					"/>
				</g>
				<g enable-background="new    ">
					<g>
						<defs>
							<path id="SVGID_3_" d="M194.044189,42.087891l2.683594,4.030273c-0.410156-0.616211-1.011719-1.084961-1.751953-1.262207
								l-2.683594-4.029785C193.032471,41.00293,193.634033,41.472168,194.044189,42.087891z"/>
						</defs>
						<clipPath id="SVGID_4_">
							<use xlink:href="#SVGID_3_"  overflow="visible"/>
						</clipPath>
						<g clip-path="url(#SVGID_4_)" enable-background="new    ">
							<path fill="#767273" d="M194.044189,42.087891l2.683594,4.030273c-0.410156-0.616211-1.011719-1.084961-1.751953-1.262207
								l-2.683594-4.029785C193.032471,41.00293,193.634033,41.472168,194.044189,42.087891"/>
						</g>
					</g>
				</g>
				<g enable-background="new    ">
					<g>
						<defs>
							<path id="SVGID_5_" d="M198.311768,53.626953l2.68457,4.030273c-0.208008-0.313477-0.552734-0.51416-0.896484-0.51416
								c-0.363281,0-0.726563,0.225098-0.928711,0.781738l-2.68457-4.029785c0.203125-0.557129,0.56543-0.782227,0.929688-0.782227
								C197.76001,53.111816,198.102783,53.313965,198.311768,53.626953z"/>
						</defs>
						<clipPath id="SVGID_6_">
							<use xlink:href="#SVGID_5_"  overflow="visible"/>
						</clipPath>
						<g clip-path="url(#SVGID_6_)" enable-background="new    ">
							<path fill="#767273" d="M198.311768,53.626953l2.68457,4.030273c-0.208008-0.313477-0.552734-0.51416-0.896484-0.51416
								c-0.363281,0-0.726563,0.225098-0.928711,0.781738l-2.68457-4.029785c0.203125-0.557129,0.56543-0.782227,0.929688-0.782227
								C197.76001,53.111816,198.102783,53.313965,198.311768,53.626953"/>
						</g>
					</g>
				</g>
				<g>
					<polygon fill="#787475" points="196.486572,53.89502 199.171143,57.924805 187.681885,93.875 184.998291,89.844727 					"/>
				</g>
				<g enable-background="new    ">
					<g>
						<defs>
							<path id="SVGID_7_" d="M243.030518,52.277832l2.68457,4.030273c-0.130859-0.196289-0.321289-0.295898-0.521484-0.295898
								c-0.266602,0-0.549805,0.178711-0.732422,0.546875l-2.68457-4.030273c0.183594-0.367676,0.467773-0.546875,0.734375-0.546875
								C242.710205,51.980957,242.899658,52.082031,243.030518,52.277832z"/>
						</defs>
						<clipPath id="SVGID_8_">
							<use xlink:href="#SVGID_7_"  overflow="visible"/>
						</clipPath>
						<g clip-path="url(#SVGID_8_)" enable-background="new    ">
							<path fill="#767273" d="M243.030518,52.277832l2.68457,4.030273c-0.130859-0.196289-0.321289-0.295898-0.521484-0.295898
								c-0.266602,0-0.549805,0.178711-0.732422,0.546875l-2.68457-4.030273c0.183594-0.367676,0.467773-0.546875,0.734375-0.546875
								C242.710205,51.980957,242.899658,52.082031,243.030518,52.277832"/>
						</g>
					</g>
				</g>
				<g enable-background="new    ">
					<g>
						<defs>
							<path id="SVGID_9_" d="M172.224854,107.519531c-0.893555-1.34375-1.789063-2.686523-2.683594-4.02832
								c0.12207,0.181641,0.368164,0.319336,0.751953,0.339844l2.683594,4.02832
								C172.593018,107.838867,172.345947,107.702148,172.224854,107.519531z"/>
						</defs>
						<clipPath id="SVGID_10_">
							<use xlink:href="#SVGID_9_"  overflow="visible"/>
						</clipPath>
						<g clip-path="url(#SVGID_10_)" enable-background="new    ">
							<path fill="#767273" d="M170.293213,103.830078l2.683594,4.029297c-0.383789-0.021484-0.630859-0.157227-0.751953-0.339844
								l-2.683594-4.029297C169.66333,103.671875,169.909424,103.810547,170.293213,103.830078"/>
						</g>
					</g>
				</g>
				<g enable-background="new    ">
					<g>
						<defs>
							<path id="SVGID_11_" d="M269.554932,38.520996c0.895508,1.343262,1.789063,2.687012,2.683594,4.029785
								c0.166016,0.249023-0.196289,0.595215-1.895508,1.039063c-3.104492,0.808105-5.648438,0.50293-6.664063,4.547363
								l-2.683594-4.030273c1.015625-4.043945,3.560547-3.73877,6.664063-4.546875
								C269.356689,39.116211,269.720947,38.77002,269.554932,38.520996z"/>
						</defs>
						<clipPath id="SVGID_12_">
							<use xlink:href="#SVGID_11_"  overflow="visible"/>
						</clipPath>
						<g clip-path="url(#SVGID_12_)" enable-background="new    ">
							<path fill="#767273" d="M269.554932,38.520996l2.683594,4.029785c0.166016,0.249023-0.196289,0.595215-1.895508,1.039063
								c-3.104492,0.808105-5.648438,0.50293-6.664063,4.547363l-2.683594-4.030273
								c1.015625-4.043945,3.560547-3.73877,6.664063-4.546875C269.356689,39.116211,269.720947,38.77002,269.554932,38.520996"/>
						</g>
					</g>
				</g>
				<g enable-background="new    ">
					<g>
						<defs>
							<path id="SVGID_13_" d="M188.060791,101.644531c-0.894531-1.34375-1.789063-2.6875-2.683594-4.030273
								c-0.098633-0.146484-0.1875-0.291992-0.267578-0.43457c-1.121094-1.933594-1.052734-4.602539-0.112305-7.334961
								l2.683594,4.030273c-0.939453,2.732422-1.007813,5.400391,0.113281,7.333984
								C187.874268,101.351563,187.963135,101.49707,188.060791,101.644531z"/>
						</defs>
						<clipPath id="SVGID_14_">
							<use xlink:href="#SVGID_13_"  overflow="visible"/>
						</clipPath>
						<g clip-path="url(#SVGID_14_)" enable-background="new    ">
							<path fill="#767273" d="M184.998291,89.844727l2.683594,4.030273c-0.939453,2.732422-1.007813,5.400391,0.113281,7.333984
								c0.080078,0.142578,0.168945,0.288086,0.266602,0.435547l-2.683594-4.030273
								c-0.098633-0.146484-0.1875-0.291992-0.267578-0.43457C183.990479,95.24707,184.057861,92.578125,184.998291,89.844727"/>
						</g>
					</g>
				</g>
				<g>
					<polygon fill="#787475" points="180.403564,103.452148 183.087158,107.482422 172.976807,107.859375 170.293213,103.830078 
											"/>
				</g>
				<g>
					<polygon fill="#787575" points="214.108643,38.436035 216.792236,42.46582 219.440674,84.105469 216.75708,80.076172 					"/>
				</g>
				<g>
					<polygon fill="#787575" points="192.437744,103.955078 195.122314,107.984375 183.087158,107.482422 180.403564,103.452148 
											"/>
				</g>
				<g enable-background="new    ">
					<g>
						<defs>
							<path id="SVGID_15_" d="M193.263916,102.785156c0.895508,1.342773,1.789063,2.6875,2.68457,4.029297
								c0.327148,0.492188,0.030273,1.126953-0.826172,1.169922l-2.68457-4.029297
								C193.295166,103.912109,193.591064,103.277344,193.263916,102.785156z"/>
						</defs>
						<clipPath id="SVGID_16_">
							<use xlink:href="#SVGID_15_"  overflow="visible"/>
						</clipPath>
						<g clip-path="url(#SVGID_16_)" enable-background="new    ">
							<path fill="#767273" d="M193.263916,102.785156l2.68457,4.029297c0.327148,0.492188,0.030273,1.126953-0.826172,1.169922
								l-2.68457-4.029297C193.295166,103.912109,193.591064,103.277344,193.263916,102.785156"/>
						</g>
					</g>
				</g>
				<g>
					<polygon fill="#787475" points="241.776611,52.527832 244.460205,56.558105 210.966064,105.164063 208.282471,101.133789 					
						"/>
				</g>
				<g enable-background="new    ">
					<g>
						<defs>
							<path id="SVGID_17_" d="M205.35376,106.572266l-2.683594-4.030273c0.5,0.750977,1.1875,1.079102,1.930664,1.079102
								c1.291992,0,2.751953-0.992188,3.679688-2.487305l2.68457,4.030273c-0.927734,1.495117-2.387695,2.486328-3.679688,2.486328
								C206.542236,107.650391,205.85376,107.322266,205.35376,106.572266z"/>
						</defs>
						<clipPath id="SVGID_18_">
							<use xlink:href="#SVGID_17_"  overflow="visible"/>
						</clipPath>
						<g clip-path="url(#SVGID_18_)" enable-background="new    ">
							<path fill="#767273" d="M208.282471,101.133789l2.683594,4.030273c-0.927734,1.495117-2.387695,2.486328-3.679688,2.486328
								c-0.744141,0-1.432617-0.328125-1.931641-1.078125l-2.683594-4.030273c0.5,0.750977,1.1875,1.079102,1.930664,1.079102
								C205.894775,103.621094,207.35376,102.628906,208.282471,101.133789"/>
						</g>
					</g>
				</g>
				<g enable-background="new    ">
					<g>
						<defs>
							<path id="SVGID_19_" d="M224.251221,107.652344l-2.68457-4.029297C221.713135,103.841797,222.013916,104,222.462158,104
								l2.683594,4.030273C224.69751,108.030273,224.395752,107.87207,224.251221,107.652344z"/>
						</defs>
						<clipPath id="SVGID_20_">
							<use xlink:href="#SVGID_19_"  overflow="visible"/>
						</clipPath>
						<g clip-path="url(#SVGID_20_)" enable-background="new    ">
							<path fill="#767273" d="M222.462158,104l2.683594,4.030273c-0.447266,0-0.749023-0.158203-0.894531-0.37793
								l-2.68457-4.029297C221.713135,103.841797,222.013916,104,222.462158,104"/>
						</g>
					</g>
				</g>
				<g>
					<polygon fill="#787475" points="260.995361,44.106934 263.678955,48.137207 251.446533,97.246094 248.762939,93.21582 					"/>
				</g>
				<g>
					<polygon fill="#787475" points="240.559814,103.390625 243.243408,107.419922 225.145752,108.030273 222.462158,104 					"/>
				</g>
				<g enable-background="new    ">
					<g>
						<defs>
							<path id="SVGID_21_" d="M252.467041,102.640625l-2.683594-4.03125c-1.03418-1.550781-1.479492-3.411133-1.020508-5.393555
								l2.683594,4.030273C250.987549,99.228516,251.432861,101.086914,252.467041,102.640625z"/>
						</defs>
						<clipPath id="SVGID_22_">
							<use xlink:href="#SVGID_21_"  overflow="visible"/>
						</clipPath>
						<g clip-path="url(#SVGID_22_)" enable-background="new    ">
							<path fill="#767273" d="M248.762939,93.21582l2.683594,4.030273c-0.458984,1.982422-0.013672,3.841797,1.020508,5.394531
								l-2.683594-4.03125C248.750244,97.058594,248.303955,95.198242,248.762939,93.21582"/>
						</g>
					</g>
				</g>
				<g>
					<polygon fill="#787575" points="255.453369,103.9375 258.136963,107.967773 243.243408,107.419922 240.559814,103.390625 					
						"/>
				</g>
				<g enable-background="new    ">
					<g>
						<defs>
							<path id="SVGID_23_" d="M256.224854,102.982422c0.895508,1.342773,1.788086,2.686523,2.68457,4.029297
								c0.263672,0.396484,0.038086,0.911133-0.771484,0.955078l-2.683594-4.029297
								C256.263916,103.894531,256.487549,103.378906,256.224854,102.982422z"/>
						</defs>
						<clipPath id="SVGID_24_">
							<use xlink:href="#SVGID_23_"  overflow="visible"/>
						</clipPath>
						<g clip-path="url(#SVGID_24_)" enable-background="new    ">
							<path fill="#767273" d="M256.224854,102.982422l2.68457,4.029297c0.263672,0.396484,0.038086,0.911133-0.771484,0.955078
								l-2.683594-4.029297C256.263916,103.894531,256.487549,103.378906,256.224854,102.982422"/>
						</g>
					</g>
				</g>
				<g>
					<path fill="#242021" d="M245.338135,37.895996l22.666992,0.144043c0.431641,0,3.542969,0.503906-0.345703,1.52002
						c-3.104492,0.808105-5.648438,0.50293-6.664063,4.546875L248.762939,93.21582
						c-1.015625,4.385742,2.396484,8.169922,6.80957,9.354492c0.998047,0.244141,1.05957,1.303711-0.119141,1.367188
						l-14.894531-0.548828L222.462158,104c-1.314453,0-1.365234-1.365234,0.064453-1.616211
						c4.229492-0.432617,7.967773-3.918945,8.782227-6.77832l11.896484-42.645508
						c0.000977-0.644043-0.331055-0.979004-0.695313-0.979004c-0.266602,0-0.550781,0.179199-0.734375,0.546875
						l-33.495117,48.605957c-0.927734,1.495117-2.387695,2.487305-3.679688,2.487305
						c-1.395508,0-2.594727-1.157227-2.720703-4.086914l-3.371094-45.316406c-0.037109-0.62793-0.56543-1.10498-1.09375-1.10498
						c-0.363281,0-0.726563,0.226074-0.929688,0.782227l-11.488281,35.950684
						c-0.94043,2.732422-1.007813,5.401367,0.112305,7.333984c1.112305,1.986328,3.976563,4.413086,7.331055,5.095703
						c1.303711,0.314453,1.238281,1.617188-0.00293,1.680664l-12.03418-0.50293l-10.109375,0.37793
						c-1.1875-0.063477-1.05957-1.240234,0.00293-1.430664c3.481445-0.745117,7.472656-4.286133,9.28125-9.328125
						l14.883789-47.832031c0.624023-1.807129-0.362305-3.982422-2.168945-4.414063l-4.604492-0.934082
						c-0.808594-0.062988-0.923828-1.241211,0.001953-1.241211l26.416992-0.214844l2.648438,41.640137l1.9375-2.355469
						l25.208008-37.396484C244.210205,39.819824,244.959229,38.64209,245.338135,37.895996z"/>
				</g>
			</g>
		</g>
	</g>
	<g>
		<g>
			<g enable-background="new    ">
				<g enable-background="new    ">
					<g>
						<defs>
							<path id="SVGID_25_" d="M281.735596,43.438965l-2.683594-4.029785c0.086914,0.130859,0.210938,0.222656,0.375,0.249023
								l2.683594,4.029785C281.946533,43.662109,281.82251,43.569824,281.735596,43.438965z"/>
						</defs>
						<clipPath id="SVGID_26_">
							<use xlink:href="#SVGID_25_"  overflow="visible"/>
						</clipPath>
						<g clip-path="url(#SVGID_26_)" enable-background="new    ">
							<path fill="#767273" d="M279.427979,39.658203l2.683594,4.029785c-0.164063-0.024902-0.287109-0.117188-0.375-0.249023
								l-2.683594-4.029785C279.139893,39.540039,279.263916,39.631836,279.427979,39.658203"/>
						</g>
					</g>
				</g>
				<g enable-background="new    ">
					<g>
						<defs>
							<path id="SVGID_27_" d="M285.050049,42.65918l2.683594,4.029785c-1.013672-1.522949-3.226563-2.441895-5.62207-3.000977
								l-2.683594-4.029785C281.82251,40.216797,284.036377,41.135742,285.050049,42.65918z"/>
						</defs>
						<clipPath id="SVGID_28_">
							<use xlink:href="#SVGID_27_"  overflow="visible"/>
						</clipPath>
						<g clip-path="url(#SVGID_28_)" enable-background="new    ">
							<path fill="#767273" d="M285.050049,42.65918l2.683594,4.029785c-1.013672-1.522949-3.226563-2.441895-5.62207-3.000977
								l-2.683594-4.029785C281.82251,40.216797,284.036377,41.135742,285.050049,42.65918"/>
						</g>
					</g>
				</g>
				<g enable-background="new    ">
					<g>
						<defs>
							<path id="SVGID_29_" d="M310.966064,38.532227l2.683594,4.029785c0.506836,0.76123,0.233398,2.055176-1.768555,2.230957
								c-3.058594,0.27002-6.256836,2.444824-7.007813,5.050781l-2.683594-4.029785
								c0.751953-2.605957,3.949219-4.781738,7.006836-5.050781C311.198486,40.586914,311.4729,39.292969,310.966064,38.532227z"/>
						</defs>
						<clipPath id="SVGID_30_">
							<use xlink:href="#SVGID_29_"  overflow="visible"/>
						</clipPath>
						<g clip-path="url(#SVGID_30_)" enable-background="new    ">
							<path fill="#767273" d="M310.966064,38.532227l2.683594,4.029785c0.506836,0.76123,0.233398,2.055176-1.768555,2.230957
								c-3.058594,0.27002-6.256836,2.444824-7.007813,5.050781l-2.683594-4.029785
								c0.751953-2.605957,3.949219-4.781738,7.006836-5.050781C311.198486,40.586914,311.4729,39.292969,310.966064,38.532227"/>
						</g>
					</g>
				</g>
				<g enable-background="new    ">
					<g>
						<defs>
							<path id="SVGID_31_" d="M261.053955,107.503906l-2.682617-4.029297c0.09082,0.136719,0.256836,0.229492,0.512695,0.229492
								l2.683594,4.030273C261.311768,107.732422,261.145752,107.640625,261.053955,107.503906z"/>
						</defs>
						<clipPath id="SVGID_32_">
							<use xlink:href="#SVGID_31_"  overflow="visible"/>
						</clipPath>
						<g clip-path="url(#SVGID_32_)" enable-background="new    ">
							<path fill="#767273" d="M258.884033,103.703125l2.683594,4.029297c-0.255859,0-0.421875-0.091797-0.513672-0.228516
								l-2.682617-4.029297C258.462158,103.611328,258.628174,103.703125,258.884033,103.703125"/>
						</g>
					</g>
				</g>
				<g>
					<polygon fill="#787475" points="302.189697,45.813965 304.873291,49.84375 290.618408,99.124023 287.934814,95.09375 					"/>
				</g>
				<g>
					<polygon fill="#787475" points="276.145752,103.183594 278.829346,107.212891 261.56665,107.732422 258.884033,103.703125 
											"/>
				</g>
				<g enable-background="new    ">
					<g>
						<defs>
							<path id="SVGID_33_" d="M291.533447,103.575195l-2.68457-4.030273c-0.966797-1.451172-1.254883-3.163086-0.915039-4.451172
								l2.68457,4.030273C290.277588,100.412109,290.565674,102.124023,291.533447,103.575195z"/>
						</defs>
						<clipPath id="SVGID_34_">
							<use xlink:href="#SVGID_33_"  overflow="visible"/>
						</clipPath>
						<g clip-path="url(#SVGID_34_)" enable-background="new    ">
							<path fill="#767273" d="M287.934814,95.09375l2.68457,4.030273c-0.34082,1.288086-0.052734,3,0.915039,4.452148
								l-2.68457-4.030273C287.883057,98.09375,287.594971,96.381836,287.934814,95.09375"/>
						</g>
					</g>
				</g>
				<g>
					<polygon fill="#787575" points="294.114502,103.874023 296.799072,107.904297 278.829346,107.212891 276.145752,103.183594 
											"/>
				</g>
				<g enable-background="new    ">
					<g>
						<defs>
							<path id="SVGID_35_" d="M294.524658,102.769531c0.895508,1.344727,1.789063,2.6875,2.68457,4.030273
								c0.286133,0.430664,0.140625,1.104492-0.410156,1.104492l-2.68457-4.030273
								C294.66626,103.874023,294.811768,103.199219,294.524658,102.769531z"/>
						</defs>
						<clipPath id="SVGID_36_">
							<use xlink:href="#SVGID_35_"  overflow="visible"/>
						</clipPath>
						<g clip-path="url(#SVGID_36_)" enable-background="new    ">
							<path fill="#767273" d="M294.524658,102.769531l2.68457,4.030273c0.286133,0.430664,0.140625,1.104492-0.410156,1.104492
								l-2.68457-4.030273C294.66626,103.874023,294.811768,103.199219,294.524658,102.769531"/>
						</g>
					</g>
				</g>
				<g>
					<path fill="#242021" d="M279.528564,37.725098l30.428711,0.251953c1.430664,0,2.101563,2.533691-0.760742,2.786133
						c-3.057617,0.27002-6.254883,2.444824-7.006836,5.050781l-14.255859,49.278809
						c-0.688477,2.616211,1.209961,6.983398,6.120117,7.352539c0.808594,0.188477,0.806641,1.428711,0.061523,1.428711
						l-17.970703-0.69043l-17.261719,0.520508c-0.936523,0-0.681641-1.239258,0.119141-1.365234
						c2.366211-0.431641,9.243164-3.100586,10.554688-7.325195l15.895508-49.197754
						c0.995117-3.541016-2.292969-5.284668-6.024414-6.156738C278.619385,39.532227,278.783447,37.788086,279.528564,37.725098z"/>
				</g>
			</g>
		</g>
	</g>
	<g>
		<g>
			<g enable-background="new    ">
				<g enable-background="new    ">
					<g>
						<defs>
							<path id="SVGID_37_" d="M156.500244,36.90625c0.894531,1.342773,1.789063,2.686523,2.683594,4.029785
								c0.28418,0.425781,0.454102,0.958984,0.463867,1.608887l-2.683594-4.029785
								C156.954346,37.864258,156.783447,37.332031,156.500244,36.90625z"/>
						</defs>
						<clipPath id="SVGID_38_">
							<use xlink:href="#SVGID_37_"  overflow="visible"/>
						</clipPath>
						<g clip-path="url(#SVGID_38_)" enable-background="new    ">
							<path fill="#767273" d="M156.500244,36.90625l2.683594,4.029785c0.28418,0.425781,0.454102,0.958984,0.463867,1.608887
								l-2.683594-4.029785C156.954346,37.864258,156.783447,37.332031,156.500244,36.90625"/>
						</g>
					</g>
				</g>
				<g enable-background="new    ">
					<g>
						<defs>
							<path id="SVGID_39_" d="M142.807861,53.464844l2.68457,4.030273c-0.078125-0.117188-0.166992-0.177246-0.263672-0.177246
								c-0.128906,0-0.270508,0.109863-0.415039,0.334961l-2.683594-4.029785
								c0.143555-0.225098,0.285156-0.333984,0.415039-0.334961C142.640869,53.289063,142.729736,53.348145,142.807861,53.464844z"
								/>
						</defs>
						<clipPath id="SVGID_40_">
							<use xlink:href="#SVGID_39_"  overflow="visible"/>
						</clipPath>
						<g clip-path="url(#SVGID_40_)" enable-background="new    ">
							<path fill="#767273" d="M142.807861,53.464844l2.68457,4.030273c-0.078125-0.117188-0.166992-0.177246-0.263672-0.177246
								c-0.128906,0-0.270508,0.109863-0.415039,0.334961l-2.683594-4.029785
								c0.143555-0.225098,0.285156-0.333984,0.415039-0.334961C142.640869,53.289063,142.729736,53.348145,142.807861,53.464844"/>
						</g>
					</g>
				</g>
				<g enable-background="new    ">
					<g>
						<defs>
							<path id="SVGID_41_" d="M142.131104,53.624023l2.683594,4.029785c-4.986328,7.08252-11.855469,15.76416-16.779297,22.791504
								l-2.68457-4.029297C130.273682,69.388672,137.143799,60.706055,142.131104,53.624023z"/>
						</defs>
						<clipPath id="SVGID_42_">
							<use xlink:href="#SVGID_41_"  overflow="visible"/>
						</clipPath>
						<g clip-path="url(#SVGID_42_)" enable-background="new    ">
							<path fill="#767273" d="M142.131104,53.624023l2.683594,4.029785c-4.986328,7.08252-11.855469,15.76416-16.779297,22.791504
								l-2.68457-4.029297C130.273682,69.388672,137.143799,60.706055,142.131104,53.624023"/>
						</g>
					</g>
				</g>
				<g enable-background="new    ">
					<g>
						<defs>
							<path id="SVGID_43_" d="M127.958252,80.970703l-2.68457-4.029297c-0.079102-0.117188-0.057617-0.289063,0.076172-0.524414
								l2.68457,4.030273C127.899658,80.683594,127.87915,80.853516,127.958252,80.970703z"/>
						</defs>
						<clipPath id="SVGID_44_">
							<use xlink:href="#SVGID_43_"  overflow="visible"/>
						</clipPath>
						<g clip-path="url(#SVGID_44_)" enable-background="new    ">
							<path fill="#767273" d="M125.35083,76.416016l2.68457,4.029297c-0.134766,0.238281-0.155273,0.408203-0.076172,0.525391
								l-2.68457-4.029297C125.195557,76.823242,125.216064,76.652344,125.35083,76.416016"/>
						</g>
					</g>
				</g>
				<g enable-background="new    ">
					<g>
						<defs>
							<path id="SVGID_45_" d="M97.963135,107.392578c-0.895508-1.34375-1.790039-2.6875-2.68457-4.03125
								c0.110352,0.166016,0.310547,0.287109,0.600586,0.306641l2.683594,4.030273
								C98.272705,107.677734,98.07251,107.556641,97.963135,107.392578z"/>
						</defs>
						<clipPath id="SVGID_46_">
							<use xlink:href="#SVGID_45_"  overflow="visible"/>
						</clipPath>
						<g clip-path="url(#SVGID_46_)" enable-background="new    ">
							<path fill="#767273" d="M95.880127,103.666992l2.683594,4.030273c-0.291016-0.020508-0.489258-0.140625-0.599609-0.306641
								l-2.68457-4.029297C95.389893,103.525391,95.589111,103.646484,95.880127,103.666992"/>
						</g>
					</g>
				</g>
				<g>
					<polygon fill="#777474" points="123.544189,80.416016 126.227783,84.445313 117.372314,97.000977 114.687744,92.970703 					
						"/>
				</g>
				<g>
					<polygon fill="#787475" points="105.7854,102.273438 108.468018,106.304688 98.562744,107.697266 95.880127,103.666992 					
						"/>
				</g>
				<g enable-background="new    ">
					<g>
						<defs>
							<path id="SVGID_47_" d="M117.50708,101.939453c-0.895508-1.34375-1.789063-2.686523-2.683594-4.029297
								c-1.008789-1.513672-1.220703-3.242188-0.135742-4.939453l2.68457,4.030273
								C116.287354,98.698242,116.499268,100.425781,117.50708,101.939453z"/>
						</defs>
						<clipPath id="SVGID_48_">
							<use xlink:href="#SVGID_47_"  overflow="visible"/>
						</clipPath>
						<g clip-path="url(#SVGID_48_)" enable-background="new    ">
							<path fill="#767273" d="M114.687744,92.970703l2.68457,4.030273c-1.084961,1.697266-0.873047,3.424805,0.134766,4.938477
								l-2.683594-4.029297C113.814697,96.396484,113.60376,94.667969,114.687744,92.970703"/>
						</g>
					</g>
				</g>
				<g>
					<polygon fill="#787475" points="143.762939,80.541016 146.446533,84.570313 126.227783,84.445313 123.544189,80.416016 					
						"/>
				</g>
				<g enable-background="new    ">
					<g>
						<defs>
							<path id="SVGID_49_" d="M121.927002,103.963867l2.683594,4.029297c-0.108398-0.044922-2.174805-0.907227-6.869141-1.348633
								c-1.258789-0.121094-3.516602-0.503906-6.271484-0.503906c-0.948242,0-1.955078,0.044922-3.000977,0.162109
								l-2.683594-4.029297c1.045898-0.117188,2.052734-0.164063,3.000977-0.164063c2.755859,0,5.013672,0.385742,6.270508,0.505859
								C119.752197,103.056641,121.817627,103.917969,121.927002,103.963867z"/>
						</defs>
						<clipPath id="SVGID_50_">
							<use xlink:href="#SVGID_49_"  overflow="visible"/>
						</clipPath>
						<g clip-path="url(#SVGID_50_)" enable-background="new    ">
							<path fill="#767273" d="M121.927002,103.963867l2.683594,4.029297c-0.108398-0.044922-2.174805-0.907227-6.869141-1.348633
								c-1.258789-0.121094-3.516602-0.503906-6.271484-0.503906c-0.948242,0-1.955078,0.044922-3.000977,0.162109
								l-2.683594-4.029297c1.045898-0.117188,2.052734-0.164063,3.000977-0.164063c2.755859,0,5.013672,0.385742,6.270508,0.505859
								C119.752197,103.056641,121.817627,103.917969,121.927002,103.963867"/>
						</g>
					</g>
				</g>
				<g enable-background="new    ">
					<g>
						<defs>
							<path id="SVGID_51_" d="M122.650635,102.523438l2.68457,4.02832c0.330078,0.494141,0.189453,1.487305-0.460938,1.487305
								c-0.080078,0-0.166992-0.015625-0.263672-0.046875l-2.683594-4.029297
								c0.095703,0.032227,0.182617,0.046875,0.262695,0.046875C122.841064,104.010742,122.980713,103.017578,122.650635,102.523438
								z"/>
						</defs>
						<clipPath id="SVGID_52_">
							<use xlink:href="#SVGID_51_"  overflow="visible"/>
						</clipPath>
						<g clip-path="url(#SVGID_52_)" enable-background="new    ">
							<path fill="#767273" d="M122.650635,102.523438l2.68457,4.02832c0.330078,0.494141,0.189453,1.487305-0.460938,1.487305
								c-0.080078,0-0.166992-0.015625-0.263672-0.046875l-2.683594-4.029297
								c0.095703,0.032227,0.182617,0.046875,0.262695,0.046875C122.841064,104.010742,122.980713,103.017578,122.650635,102.523438
								"/>
						</g>
					</g>
				</g>
				<g>
					<polygon fill="#787575" points="156.964111,38.515137 159.646729,42.544922 160.973877,98.808594 158.29126,94.777344 					"/>
				</g>
				<g enable-background="new    ">
					<g>
						<defs>
							<path id="SVGID_53_" d="M162.270752,102.726563c-0.894531-1.34375-1.789063-2.6875-2.683594-4.03125
								c-0.695313-1.042969-1.151367-2.324219-1.296875-3.917969l2.683594,4.03125
								C161.120361,100.400391,161.577393,101.683594,162.270752,102.726563z"/>
						</defs>
						<clipPath id="SVGID_54_">
							<use xlink:href="#SVGID_53_"  overflow="visible"/>
						</clipPath>
						<g clip-path="url(#SVGID_54_)" enable-background="new    ">
							<path fill="#767273" d="M158.29126,94.777344l2.683594,4.03125c0.146484,1.591797,0.603516,2.875,1.296875,3.917969
								l-2.683594-4.03125C158.892822,97.652344,158.436768,96.371094,158.29126,94.777344"/>
						</g>
					</g>
				</g>
				<g enable-background="new    ">
					<g>
						<defs>
							<path id="SVGID_55_" d="M138.215088,107.335938l-2.68457-4.029297c0.149414,0.225586,0.390625,0.265625,0.635742,0.251953
								c9.328125-0.412109,8.238281-0.449219,10.541992-0.691406c1.839844-0.195313,3.15332-0.283203,4.289063-0.283203
								c1.3125,0,2.386719,0.117188,3.760742,0.318359c5.87207,0.873047,10.785156,0.949219,11.043945,0.953125l2.683594,4.029297
								c-0.258789-0.003906-5.171875-0.080078-11.043945-0.951172c-1.374023-0.203125-2.447266-0.320313-3.760742-0.320313
								c-1.134766,0-2.449219,0.087891-4.289063,0.283203c-2.302734,0.242188-1.214844,0.27832-10.541992,0.692383
								C138.604736,107.601563,138.365479,107.560547,138.215088,107.335938z"/>
						</defs>
						<clipPath id="SVGID_56_">
							<use xlink:href="#SVGID_55_"  overflow="visible"/>
						</clipPath>
						<g clip-path="url(#SVGID_56_)" enable-background="new    ">
							<path fill="#767273" d="M165.802979,103.855469l2.683594,4.02832c-0.258789-0.003906-5.171875-0.079102-11.043945-0.952148
								c-1.374023-0.201172-2.447266-0.320313-3.760742-0.320313c-1.134766,0-2.449219,0.088867-4.289063,0.285156
								c-2.302734,0.242188-1.214844,0.277344-10.541992,0.691406c-0.245117,0.011719-0.484375-0.027344-0.634766-0.25293
								l-2.68457-4.02832c0.149414,0.224609,0.390625,0.263672,0.635742,0.251953
								c9.328125-0.414063,8.238281-0.449219,10.541992-0.692383c1.839844-0.195313,3.15332-0.283203,4.289063-0.283203
								c1.3125,0,2.386719,0.117188,3.760742,0.319336C160.631104,103.773438,165.544189,103.851563,165.802979,103.855469"/>
						</g>
					</g>
				</g>
				<g enable-background="new    ">
					<g>
						<defs>
							<path id="SVGID_57_" d="M166.079346,102.814453c0.894531,1.34375,1.789063,2.6875,2.683594,4.030273
								c0.262695,0.395508,0.040039,0.935547-0.276367,1.039063l-2.683594-4.02832
								C166.119385,103.75,166.342041,103.209961,166.079346,102.814453z"/>
						</defs>
						<clipPath id="SVGID_58_">
							<use xlink:href="#SVGID_57_"  overflow="visible"/>
						</clipPath>
						<g clip-path="url(#SVGID_58_)" enable-background="new    ">
							<path fill="#767273" d="M166.079346,102.814453l2.683594,4.030273c0.262695,0.395508,0.040039,0.935547-0.276367,1.039063
								l-2.683594-4.02832C166.119385,103.75,166.342041,103.209961,166.079346,102.814453"/>
						</g>
					</g>
				</g>
				<g>
					<path fill="#242021" d="M165.868408,102.605469c0.556641,0.376953,0.3125,1.123047-0.06543,1.25
						c-0.258789-0.003906-5.171875-0.082031-11.043945-0.953125c-1.374023-0.202148-2.448242-0.319336-3.760742-0.319336
						c-1.135742,0-2.449219,0.087891-4.289063,0.283203c-2.303711,0.243164-1.214844,0.27832-10.541992,0.692383
						c-0.354492,0.017578-0.699219-0.074219-0.773438-0.674805c0.083008-0.692383,1.125977-1.024414,1.458984-1.114258
						c3.726563-1.033203,5.564453-2.902344,6.381836-7.486328c0.881836-5.041992,0.646484-9.329102,0.52832-13.743164
						l-20.21875-0.125l-8.855469,12.555664c-2.625,4.107422,2.34082,8.395508,7.817383,9.392578
						c0.501953,0.388672,0.416992,1.646484-0.31543,1.646484c-0.080078,0-0.166992-0.014648-0.262695-0.046875
						c-0.109375-0.045898-2.174805-0.908203-6.870117-1.348633c-1.256836-0.120117-3.515625-0.504883-6.270508-0.504883
						c-0.948242,0-1.955078,0.045898-3.000977,0.162109l-9.905273,1.394531c-0.936523-0.0625-0.93457-1.177734,0.001953-1.429688
						c4.786133-0.620117,10.521484-4.169922,13.885742-8.951172l40.290039-56.200195
						c0.665039-0.964844,2.087891-1.526855,3.47168-1.526855c1.733398,0,3.402344,0.880859,3.43457,2.956055l1.327148,56.263184
						C158.7229,99.496094,161.88501,101.491211,165.868408,102.605469z M138.053955,77.12793
						c2.050781,0,3.980469,0.010742,5.418945,0.041992L142.939697,53.75c-0.101563-0.304199-0.238281-0.460938-0.394531-0.460938
						c-0.128906,0-0.271484,0.109863-0.415039,0.334961c-4.987305,7.082031-11.856445,15.764648-16.780273,22.791992
						c-0.31543,0.556641-0.000977,0.746094,0.745117,0.746094c0.119141,0.009766,0.523438,0.013672,1.138672,0.013672
						c1.05957,0,2.743164-0.010742,4.670898-0.021484C133.831299,77.140625,136.003174,77.12793,138.053955,77.12793"/>
				</g>
			</g>
		</g>
	</g>
	<g>
		<g>
			<g enable-background="new    ">
				<g enable-background="new    ">
					<g>
						<defs>
							<path id="SVGID_59_" d="M371.742432,37.109863c0.895508,1.343262,1.789063,2.687012,2.68457,4.030273
								c0.228516,0.34375,0.301758,0.743652,0.141602,1.207031l-2.683594-4.030273
								C372.045166,37.854004,371.9729,37.455078,371.742432,37.109863z"/>
						</defs>
						<clipPath id="SVGID_60_">
							<use xlink:href="#SVGID_59_"  overflow="visible"/>
						</clipPath>
						<g clip-path="url(#SVGID_60_)" enable-background="new    ">
							<path fill="#767273" d="M371.742432,37.109863l2.68457,4.030273c0.228516,0.34375,0.301758,0.743652,0.141602,1.207031
								l-2.683594-4.030273C372.045166,37.854004,371.9729,37.455078,371.742432,37.109863"/>
						</g>
					</g>
				</g>
				<g>
					<polygon fill="#787475" points="371.88501,38.315918 374.567627,42.347168 370.076416,53.795898 367.393799,49.76709 					"/>
				</g>
				<g enable-background="new    ">
					<g>
						<defs>
							<path id="SVGID_61_" d="M367.606689,55.038086c-0.894531-1.343262-1.789063-2.687012-2.683594-4.030273
								c0.288086,0.433105,0.607422,0.631348,0.924805,0.631348c0.598633,0,1.188477-0.707031,1.544922-1.873047l2.683594,4.029785
								c-0.354492,1.166992-0.945313,1.873047-1.544922,1.873047C368.216064,55.668945,367.895752,55.471191,367.606689,55.038086z"
								/>
						</defs>
						<clipPath id="SVGID_62_">
							<use xlink:href="#SVGID_61_"  overflow="visible"/>
						</clipPath>
						<g clip-path="url(#SVGID_62_)" enable-background="new    ">
							<path fill="#767273" d="M367.393799,49.76709l2.683594,4.029785c-0.354492,1.166992-0.945313,1.873047-1.544922,1.873047
								c-0.31543,0-0.636719-0.197754-0.924805-0.630859l-2.683594-4.030273c0.288086,0.433105,0.607422,0.631348,0.924805,0.631348
								C366.446533,51.640137,367.037354,50.933105,367.393799,49.76709"/>
						</g>
					</g>
				</g>
				<g enable-background="new    ">
					<g>
						<defs>
							<path id="SVGID_63_" d="M340.394775,78.134766l-2.683594-4.029297c0.204102,0.307617,0.852539,0.589844,1.734375,0.683594
								l2.68457,4.029297C341.246338,78.724609,340.599854,78.441406,340.394775,78.134766z"/>
						</defs>
						<clipPath id="SVGID_64_">
							<use xlink:href="#SVGID_63_"  overflow="visible"/>
						</clipPath>
						<g clip-path="url(#SVGID_64_)" enable-background="new    ">
							<path fill="#767273" d="M339.445557,74.789063l2.68457,4.029297c-0.883789-0.09375-1.530273-0.375-1.735352-0.683594
								l-2.683594-4.029297C337.915283,74.413086,338.562744,74.693359,339.445557,74.789063"/>
						</g>
					</g>
				</g>
				<g enable-background="new    ">
					<g>
						<defs>
							<path id="SVGID_65_" d="M343.602783,76.588867l2.683594,4.030273c-0.776367-1.166992-2.175781-1.433594-4.155273-1.800781
								l-2.68457-4.030273C341.427002,75.155273,342.824463,75.421875,343.602783,76.588867z"/>
						</defs>
						<clipPath id="SVGID_66_">
							<use xlink:href="#SVGID_65_"  overflow="visible"/>
						</clipPath>
						<g clip-path="url(#SVGID_66_)" enable-background="new    ">
							<path fill="#767273" d="M343.602783,76.588867l2.683594,4.030273c-0.776367-1.166992-2.175781-1.433594-4.155273-1.800781
								l-2.68457-4.030273C341.427002,75.155273,342.824463,75.421875,343.602783,76.588867"/>
						</g>
					</g>
				</g>
				<g enable-background="new    ">
					<g>
						<defs>
							<path id="SVGID_67_" d="M362.729736,39.009766c0.895508,1.343262,1.788086,2.6875,2.683594,4.030273
								c-0.308594-0.462891-0.704102-0.753906-1.21582-0.783203c-0.643555-0.034668-1.289063-0.050781-1.932617-0.050781
								c-4.078125,0-8.126953,0.672852-11.734375,1.821777c-13.741211,4.38623-22.453125,11.881348-28.196289,24.680176
								c-5.241211,11.489258-3.178711,23.84668,0.344727,29.135742l-2.68457-4.029297
								c-3.521484-5.291016-5.585938-17.647461-0.344727-29.136719c5.744141-12.797852,14.456055-20.293945,28.197266-24.679688
								c3.606445-1.148926,7.65625-1.822266,11.733398-1.822266c0.644531,0,1.289063,0.01709,1.933594,0.05127
								C362.024658,38.255859,362.422119,38.546875,362.729736,39.009766z"/>
						</defs>
						<clipPath id="SVGID_68_">
							<use xlink:href="#SVGID_67_"  overflow="visible"/>
						</clipPath>
						<g clip-path="url(#SVGID_68_)" enable-background="new    ">
							<path fill="#767273" d="M362.729736,39.009766l2.683594,4.030273c-0.308594-0.462891-0.704102-0.753906-1.21582-0.783203
								c-0.643555-0.034668-1.289063-0.050781-1.932617-0.050781c-4.078125,0-8.126953,0.672852-11.734375,1.821777
								c-13.741211,4.38623-22.453125,11.881348-28.196289,24.680176c-5.241211,11.489258-3.178711,23.84668,0.344727,29.135742
								l-2.68457-4.029297c-3.521484-5.291016-5.585938-17.647461-0.344727-29.136719
								c5.744141-12.797852,14.456055-20.293945,28.197266-24.679688c3.606445-1.148926,7.65625-1.822266,11.733398-1.822266
								c0.644531,0,1.289063,0.01709,1.933594,0.05127C362.024658,38.255859,362.422119,38.546875,362.729736,39.009766"/>
						</g>
					</g>
				</g>
				<g enable-background="new    ">
					<g>
						<defs>
							<path id="SVGID_69_" d="M369.479736,74.160156l2.683594,4.029297c-4.543945,0.683594-6.352539,1.555664-6.786133,3.235352
								l-2.68457-4.030273C363.128174,75.713867,364.936768,74.842773,369.479736,74.160156z"/>
						</defs>
						<clipPath id="SVGID_70_">
							<use xlink:href="#SVGID_69_"  overflow="visible"/>
						</clipPath>
						<g clip-path="url(#SVGID_70_)" enable-background="new    ">
							<path fill="#767273" d="M369.479736,74.160156l2.683594,4.029297c-4.543945,0.683594-6.352539,1.555664-6.786133,3.235352
								l-2.68457-4.030273C363.128174,75.713867,364.936768,74.842773,369.479736,74.160156"/>
						</g>
					</g>
				</g>
				<g enable-background="new    ">
					<g>
						<defs>
							<path id="SVGID_71_" d="M370.021729,73.456055l2.683594,4.030273c0.154297,0.231445-0.039063,0.455078-0.541992,0.703125
								l-2.683594-4.029297C369.982666,73.912109,370.177002,73.6875,370.021729,73.456055z"/>
						</defs>
						<clipPath id="SVGID_72_">
							<use xlink:href="#SVGID_71_"  overflow="visible"/>
						</clipPath>
						<g clip-path="url(#SVGID_72_)" enable-background="new    ">
							<path fill="#767273" d="M370.021729,73.456055l2.683594,4.030273c0.154297,0.231445-0.039063,0.455078-0.541992,0.703125
								l-2.683594-4.029297C369.982666,73.912109,370.177002,73.6875,370.021729,73.456055"/>
						</g>
					</g>
				</g>
				<g enable-background="new    ">
					<g>
						<defs>
							<path id="SVGID_73_" d="M306.279541,95.890625c-0.893555-1.34375-1.789063-2.6875-2.683594-4.03125
								c2.224609,3.339844,5.28125,6.365234,9.241211,8.787109c3.793945,2.296875,9.6875,3.180664,15.826172,3.180664
								c7.647461,0,15.679688-1.371094,20.512695-3.09082l2.683594,4.029297
								c-4.833008,1.720703-12.864258,3.091797-20.511719,3.091797c-6.140625,0-12.033203-0.882813-15.827148-3.181641
								C311.561768,102.254883,308.505127,99.228516,306.279541,95.890625z"/>
						</defs>
						<clipPath id="SVGID_74_">
							<use xlink:href="#SVGID_73_"  overflow="visible"/>
						</clipPath>
						<g clip-path="url(#SVGID_74_)" enable-background="new    ">
							<path fill="#767273" d="M349.177002,100.736328l2.683594,4.029297c-4.833008,1.720703-12.864258,3.091797-20.511719,3.091797
								c-6.139648,0-12.033203-0.882813-15.827148-3.181641c-3.959961-2.420898-7.016602-5.445313-9.241211-8.785156
								l-2.683594-4.03125c2.224609,3.339844,5.28125,6.365234,9.241211,8.787109
								c3.793945,2.296875,9.6875,3.180664,15.826172,3.180664C336.312744,103.827148,344.343994,102.456055,349.177002,100.736328"
								/>
						</g>
					</g>
				</g>
				<g>
					<path fill="#242021" d="M359.152588,34.660156c3.123047,0,6.185547,0.258789,9.129883,0.807617
						c1.870117,0.376953,4.162109,1.231445,3.602539,2.849121l-4.491211,11.450195
						c-0.355469,1.166992-0.946289,1.873047-1.544922,1.873047c-0.831055,0-1.678711-1.363281-1.94043-4.749023
						c-0.147461-1.852051,0.151367-8.520996-2.393555-8.664063c-0.644531-0.035156-1.289063-0.05127-1.933594-0.05127
						c-4.077148,0-8.126953,0.67334-11.733398,1.822266c-13.741211,4.385742-22.453125,11.880859-28.197266,24.679688
						c-5.617188,12.313477-2.844727,25.624023,1.123047,30.163086c2.703125,3.092773,9.023438,5.227539,13.878906,5.227539
						c2.853516,0,5.200195-0.737305,6.011719-2.450195c2.628906-6.318359,3.90332-14.066406,3.658203-17.607422
						c0.007813-4.295898-1.674805-4.628906-4.875977-5.22168c-2.245117-0.239258-2.964844-1.693359,1.228516-1.693359
						c0.222656,0,0.458984,0.003906,0.709961,0.013672c1.344727-0.007813,2.65625-0.011719,3.945313-0.011719
						c2.952148,0,5.780273,0.017578,8.592773,0.029297c2.640625,0.013672,5.264648,0.027344,7.963867,0.027344
						c2.46875,0,5-0.011719,7.660156-0.044922c0.745117,0.369141,0.681641,0.682617-0.06543,1.051758
						c-4.543945,0.682617-6.352539,1.553711-6.787109,3.235352c-1.755859,5.967773-3.333008,12.501953-6.177734,18.623047
						c-1.011719,2.192383-5.783203,4.27832-7.338867,4.71875c-4.833008,1.719727-12.864258,3.09082-20.512695,3.09082
						c-6.139648,0-12.032227-0.883789-15.826172-3.180664c-14.230469-8.700195-16.791016-25.192383-10.979492-36.067383
						C310.476807,48.395996,336.439697,34.660156,359.152588,34.660156z"/>
				</g>
				<g enable-background="new    ">
					<g>
						<defs>
							<path id="SVGID_75_" d="M362.692627,77.394531l2.68457,4.030273c-1.756836,5.967773-3.333008,12.501953-6.178711,18.62207
								c-1.011719,2.193359-5.783203,4.279297-7.338867,4.71875l-2.683594-4.029297
								c1.555664-0.44043,6.327148-2.525391,7.338867-4.71875C359.359619,89.896484,360.937744,83.363281,362.692627,77.394531z"/>
						</defs>
						<clipPath id="SVGID_76_">
							<use xlink:href="#SVGID_75_"  overflow="visible"/>
						</clipPath>
						<g clip-path="url(#SVGID_76_)" enable-background="new    ">
							<path fill="#767273" d="M362.692627,77.394531l2.68457,4.030273c-1.756836,5.967773-3.333008,12.501953-6.178711,18.62207
								c-1.011719,2.193359-5.783203,4.279297-7.338867,4.71875l-2.683594-4.029297
								c1.555664-0.44043,6.327148-2.525391,7.338867-4.71875C359.359619,89.896484,360.937744,83.363281,362.692627,77.394531"/>
						</g>
					</g>
				</g>
			</g>
		</g>
	</g>
	<g>
		<g>
			<g enable-background="new    ">
				<g enable-background="new    ">
					<g>
						<defs>
							<path id="SVGID_77_" d="M416.156494,37.00293l2.68457,4.030273c0.28418,0.425781,0.455078,0.959961,0.464844,1.61084
								l-2.68457-4.029785C416.611572,37.962891,416.440674,37.429199,416.156494,37.00293z"/>
						</defs>
						<clipPath id="SVGID_78_">
							<use xlink:href="#SVGID_77_"  overflow="visible"/>
						</clipPath>
						<g clip-path="url(#SVGID_78_)" enable-background="new    ">
							<path fill="#767273" d="M416.156494,37.00293l2.68457,4.030273c0.28418,0.425781,0.455078,0.959961,0.464844,1.61084
								l-2.68457-4.029785C416.611572,37.962891,416.440674,37.429199,416.156494,37.00293"/>
						</g>
					</g>
				</g>
				<g enable-background="new    ">
					<g>
						<defs>
							<path id="SVGID_79_" d="M402.468994,53.559082l2.683594,4.029785c-0.079102-0.119141-0.170898-0.179688-0.267578-0.179688
								c-0.129883,0-0.271484,0.108887-0.411133,0.333984l-2.68457-4.030273c0.140625-0.225098,0.28125-0.333984,0.411133-0.333984
								C402.298096,53.378906,402.389893,53.438965,402.468994,53.559082z"/>
						</defs>
						<clipPath id="SVGID_80_">
							<use xlink:href="#SVGID_79_"  overflow="visible"/>
						</clipPath>
						<g clip-path="url(#SVGID_80_)" enable-background="new    ">
							<path fill="#767273" d="M402.468994,53.559082l2.683594,4.029785c-0.079102-0.119141-0.170898-0.179688-0.267578-0.179688
								c-0.129883,0-0.271484,0.108887-0.411133,0.333984l-2.68457-4.030273c0.140625-0.225098,0.28125-0.333984,0.411133-0.333984
								C402.298096,53.378906,402.389893,53.438965,402.468994,53.559082"/>
						</g>
					</g>
				</g>
				<g enable-background="new    ">
					<g>
						<defs>
							<path id="SVGID_81_" d="M401.789307,53.712891l2.68457,4.030273c-4.996094,7.09082-11.856445,15.772461-16.790039,22.791992
								l-2.683594-4.029297C389.933838,69.486328,396.794189,60.805176,401.789307,53.712891z"/>
						</defs>
						<clipPath id="SVGID_82_">
							<use xlink:href="#SVGID_81_"  overflow="visible"/>
						</clipPath>
						<g clip-path="url(#SVGID_82_)" enable-background="new    ">
							<path fill="#767273" d="M401.789307,53.712891l2.68457,4.030273c-4.996094,7.09082-11.856445,15.772461-16.790039,22.791992
								l-2.683594-4.029297C389.933838,69.486328,396.794189,60.805176,401.789307,53.712891"/>
						</g>
					</g>
				</g>
				<g enable-background="new    ">
					<g>
						<defs>
							<path id="SVGID_83_" d="M387.610596,81.060547l-2.683594-4.029297c-0.078125-0.118164-0.05957-0.288086,0.071289-0.525391
								l2.68457,4.030273C387.552979,80.773438,387.532471,80.943359,387.610596,81.060547z"/>
						</defs>
						<clipPath id="SVGID_84_">
							<use xlink:href="#SVGID_83_"  overflow="visible"/>
						</clipPath>
						<g clip-path="url(#SVGID_84_)" enable-background="new    ">
							<path fill="#767273" d="M385.000244,76.505859l2.683594,4.030273c-0.130859,0.237305-0.150391,0.407227-0.072266,0.524414
								l-2.683594-4.029297C384.849854,76.914063,384.868408,76.743164,385.000244,76.505859"/>
						</g>
					</g>
				</g>
				<g enable-background="new    ">
					<g>
						<defs>
							<path id="SVGID_85_" d="M357.619385,107.482422l-2.683594-4.02832c0.109375,0.163086,0.306641,0.282227,0.592773,0.302734
								l2.68457,4.030273C357.927002,107.767578,357.72876,107.646484,357.619385,107.482422z"/>
						</defs>
						<clipPath id="SVGID_86_">
							<use xlink:href="#SVGID_85_"  overflow="visible"/>
						</clipPath>
						<g clip-path="url(#SVGID_86_)" enable-background="new    ">
							<path fill="#767273" d="M355.528564,103.756836l2.68457,4.030273c-0.286133-0.019531-0.483398-0.140625-0.59375-0.304688
								l-2.683594-4.02832C355.046143,103.617188,355.242432,103.736328,355.528564,103.756836"/>
						</g>
					</g>
				</g>
				<g>
					<polygon fill="#777474" points="383.193604,80.515625 385.878174,84.543945 377.021729,97.101563 374.339111,93.070313 					
						"/>
				</g>
				<g>
					<polygon fill="#787475" points="365.443604,102.363281 368.128174,106.394531 358.213135,107.787109 355.528564,103.756836 
											"/>
				</g>
				<g enable-background="new    ">
					<g>
						<defs>
							<path id="SVGID_87_" d="M377.159424,102.025391c-0.894531-1.341797-1.789063-2.685547-2.683594-4.02832
								c-1.005859-1.510742-1.217773-3.235352-0.137695-4.926758l2.683594,4.029297
								C375.94165,98.791992,376.153564,100.515625,377.159424,102.025391z"/>
						</defs>
						<clipPath id="SVGID_88_">
							<use xlink:href="#SVGID_87_"  overflow="visible"/>
						</clipPath>
						<g clip-path="url(#SVGID_88_)" enable-background="new    ">
							<path fill="#767273" d="M374.339111,93.070313l2.683594,4.029297c-1.080078,1.691406-0.868164,3.416016,0.137695,4.925781
								l-2.683594-4.02832C373.470947,96.486328,373.259033,94.761719,374.339111,93.070313"/>
						</g>
					</g>
				</g>
				<g>
					<polygon fill="#787475" points="403.41333,80.630859 406.0979,84.661133 385.878174,84.543945 383.193604,80.515625 					"/>
				</g>
				<g enable-background="new    ">
					<g>
						<defs>
							<path id="SVGID_89_" d="M381.575439,104.054688l2.68457,4.02832c-0.108398-0.044922-2.173828-0.897461-6.859375-1.348633
								c-1.257813-0.120117-3.516602-0.503906-6.270508-0.503906c-0.948242,0-1.956055,0.044922-3.000977,0.162109
								l-2.68457-4.029297c1.044922-0.117188,2.052734-0.163086,3.000977-0.163086c2.754883,0,5.014648,0.384766,6.271484,0.504883
								C379.401611,103.154297,381.468018,104.008789,381.575439,104.054688z"/>
						</defs>
						<clipPath id="SVGID_90_">
							<use xlink:href="#SVGID_89_"  overflow="visible"/>
						</clipPath>
						<g clip-path="url(#SVGID_90_)" enable-background="new    ">
							<path fill="#767273" d="M381.575439,104.054688l2.68457,4.02832c-0.108398-0.044922-2.173828-0.897461-6.859375-1.348633
								c-1.257813-0.120117-3.516602-0.503906-6.270508-0.503906c-0.948242,0-1.956055,0.044922-3.000977,0.162109
								l-2.68457-4.029297c1.044922-0.117188,2.052734-0.163086,3.000977-0.163086c2.754883,0,5.014648,0.384766,6.271484,0.504883
								C379.401611,103.154297,381.468018,104.008789,381.575439,104.054688"/>
						</g>
					</g>
				</g>
				<g enable-background="new    ">
					<g>
						<defs>
							<path id="SVGID_91_" d="M382.307861,102.611328c0.894531,1.342773,1.789063,2.686523,2.683594,4.029297
								c0.331055,0.498047,0.188477,1.489258-0.46582,1.489258c-0.081055,0-0.168945-0.014648-0.265625-0.047852l-2.68457-4.029297
								c0.097656,0.033203,0.185547,0.048828,0.266602,0.048828C382.494385,104.101563,382.638916,103.107422,382.307861,102.611328
								z"/>
						</defs>
						<clipPath id="SVGID_92_">
							<use xlink:href="#SVGID_91_"  overflow="visible"/>
						</clipPath>
						<g clip-path="url(#SVGID_92_)" enable-background="new    ">
							<path fill="#767273" d="M382.307861,102.611328l2.683594,4.029297c0.331055,0.498047,0.188477,1.489258-0.46582,1.489258
								c-0.081055,0-0.168945-0.014648-0.265625-0.047852l-2.68457-4.029297c0.097656,0.033203,0.185547,0.048828,0.266602,0.048828
								C382.494385,104.101563,382.638916,103.107422,382.307861,102.611328"/>
						</g>
					</g>
				</g>
				<g>
					<polygon fill="#787575" points="416.621338,38.614258 419.305908,42.644043 420.633057,98.896484 417.948486,94.868164 					
						"/>
				</g>
				<g enable-background="new    ">
					<g>
						<defs>
							<path id="SVGID_93_" d="M421.927002,102.820313l-2.68457-4.030273c-0.693359-1.042969-1.150391-2.327148-1.293945-3.922852
								l2.68457,4.029297C420.774658,100.494141,421.231689,101.777344,421.927002,102.820313z"/>
						</defs>
						<clipPath id="SVGID_94_">
							<use xlink:href="#SVGID_93_"  overflow="visible"/>
						</clipPath>
						<g clip-path="url(#SVGID_94_)" enable-background="new    ">
							<path fill="#767273" d="M417.948486,94.868164l2.68457,4.030273c0.142578,1.595703,0.599609,2.878906,1.293945,3.921875
								l-2.68457-4.029297C418.549072,97.74707,418.092041,96.463867,417.948486,94.868164"/>
						</g>
					</g>
				</g>
				<g enable-background="new    ">
					<g>
						<defs>
							<path id="SVGID_95_" d="M397.875244,107.429688l-2.68457-4.03125c0.147461,0.223633,0.383789,0.263672,0.624023,0.25
								c9.337891-0.412109,8.240234-0.448242,10.552734-0.691406c1.818359-0.191406,3.121094-0.277344,4.246094-0.277344
								c1.329102,0,2.410156,0.118164,3.804688,0.323242c5.871094,0.862305,10.78418,0.938477,11.042969,0.942383l2.683594,4.029297
								c-0.257813-0.003906-5.170898-0.080078-11.042969-0.941406c-1.394531-0.205078-2.474609-0.325195-3.803711-0.325195
								c-1.125,0-2.428711,0.085938-4.246094,0.27832c-2.313477,0.242188-1.214844,0.279297-10.553711,0.693359
								C398.259033,107.689453,398.021729,107.650391,397.875244,107.429688z"/>
						</defs>
						<clipPath id="SVGID_96_">
							<use xlink:href="#SVGID_95_"  overflow="visible"/>
						</clipPath>
						<g clip-path="url(#SVGID_96_)" enable-background="new    ">
							<path fill="#767273" d="M425.461182,103.945313l2.683594,4.029297c-0.257813-0.004883-5.170898-0.080078-11.042969-0.942383
								c-1.394531-0.205078-2.474609-0.325195-3.803711-0.325195c-1.125,0-2.428711,0.085938-4.246094,0.279297
								c-2.313477,0.242188-1.214844,0.277344-10.553711,0.691406c-0.239258,0.011719-0.476563-0.027344-0.623047-0.25
								l-2.68457-4.029297c0.147461,0.222656,0.383789,0.262695,0.624023,0.25
								c9.337891-0.414063,8.240234-0.449219,10.552734-0.692383c1.818359-0.192383,3.121094-0.27832,4.246094-0.27832
								c1.329102,0,2.410156,0.119141,3.804688,0.324219C420.289307,103.864258,425.202393,103.941406,425.461182,103.945313"/>
						</g>
					</g>
				</g>
				<g enable-background="new    ">
					<g>
						<defs>
							<path id="SVGID_97_" d="M425.737549,102.912109c0.895508,1.342773,1.789063,2.685547,2.68457,4.029297
								c0.258789,0.389648,0.030273,0.928711-0.277344,1.033203l-2.683594-4.029297
								C425.769775,103.839844,425.996338,103.300781,425.737549,102.912109z"/>
						</defs>
						<clipPath id="SVGID_98_">
							<use xlink:href="#SVGID_97_"  overflow="visible"/>
						</clipPath>
						<g clip-path="url(#SVGID_98_)" enable-background="new    ">
							<path fill="#767273" d="M425.737549,102.912109l2.68457,4.029297c0.258789,0.389648,0.030273,0.928711-0.277344,1.033203
								l-2.683594-4.029297C425.769775,103.839844,425.996338,103.300781,425.737549,102.912109"/>
						</g>
					</g>
				</g>
				<g>
					<path fill="#242021" d="M425.526611,102.705078c0.557617,0.368164,0.302734,1.113281-0.06543,1.240234
						c-0.258789-0.003906-5.171875-0.081055-11.042969-0.943359c-1.394531-0.205078-2.475586-0.324219-3.804688-0.324219
						c-1.125,0-2.427734,0.085938-4.246094,0.27832c-2.3125,0.243164-1.214844,0.27832-10.552734,0.692383
						c-0.348633,0.017578-0.6875-0.074219-0.762695-0.673828c0.082031-0.692383,1.125977-1.016602,1.450195-1.115234
						c3.733398-1.024414,5.571289-2.902344,6.390625-7.486328c0.881836-5.033203,0.637695-9.320313,0.520508-13.742188
						l-20.219727-0.117188l-8.854492,12.556641c-2.616211,4.098633,2.349609,8.384766,7.824219,9.382813
						c0.50293,0.396484,0.411133,1.648438-0.321289,1.648438c-0.081055,0-0.168945-0.015625-0.266602-0.048828
						c-0.107422-0.044922-2.173828-0.898438-6.858398-1.348633c-1.257813-0.120117-3.517578-0.504883-6.271484-0.504883
						c-0.948242,0-1.956055,0.045898-3.000977,0.162109l-9.915039,1.394531c-0.925781-0.0625-0.923828-1.177734,0.00293-1.429688
						c4.794922-0.620117,10.521484-4.161133,13.895508-8.952148l40.290039-56.189941
						c0.665039-0.969238,2.086914-1.53125,3.469727-1.53125c1.734375,0,3.404297,0.884277,3.435547,2.958984l1.327148,56.254395
						C418.372314,99.594727,421.544189,101.581055,425.526611,102.705078z M397.682861,77.228516
						c2.057617,0,3.996094,0.010742,5.439453,0.041016l-0.522461-23.430664c-0.103516-0.303711-0.243164-0.459961-0.398438-0.459961
						c-0.129883,0-0.270508,0.108887-0.411133,0.333984c-4.995117,7.091309-11.855469,15.773438-16.790039,22.791992
						c-0.306641,0.557617-0.000977,0.746094,0.745117,0.746094c0.146484,0.012695,0.71875,0.016602,1.580078,0.016602
						c1.047852,0,2.526367-0.006836,4.194336-0.016602C393.443604,77.239258,395.623291,77.228516,397.682861,77.228516"/>
				</g>
			</g>
		</g>
	</g>
	
		<text transform="matrix(1 0 0 1 434.000244 107.333008)" opacity="0.78" fill="#231F20" enable-background="new    " font-family="'ArialMT'" font-size="6">TM</text>
</g>
<g id="Tick">
	<line fill="none" x1="197.877197" y1="-62.543945" x2="209.167236" y2="-30.833008"/>
	<line fill="none" x1="210.546143" y1="120.193359" x2="143.399658" y2="173.166992"/>
	<g>
		
			<linearGradient id="SVGID_99_" gradientUnits="userSpaceOnUse" x1="46.454346" y1="-11.449219" x2="46.454342" y2="39.551758" gradientTransform="matrix(1 0 0 -1 8.399902 97.009766)">
			<stop  offset="0.0604" style="stop-color:#53B848"/>
			<stop  offset="0.5549" style="stop-color:#65CCEC"/>
			<stop  offset="0.5832" style="stop-color:#61C3E7"/>
			<stop  offset="0.6882" style="stop-color:#55A7D8"/>
			<stop  offset="0.7933" style="stop-color:#4D92CD"/>
			<stop  offset="0.8976" style="stop-color:#4886C6"/>
			<stop  offset="1" style="stop-color:#4682C4"/>
		</linearGradient>
		<polygon fill="url(#SVGID_99_)" stroke="#000000" stroke-width="0.25" points="28.687744,57.458008 46.85376,57.458008 
			81.020752,108.458984 63.020752,108.458984 		"/>
		
			<linearGradient id="SVGID_100_" gradientUnits="userSpaceOnUse" x1="55.585205" y1="-11.400879" x2="136.543182" y2="85.08107" gradientTransform="matrix(1 0 0 -1 8.399902 97.009766)">
			<stop  offset="0" style="stop-color:#6EBE44"/>
			<stop  offset="0.0011" style="stop-color:#6EBE44"/>
			<stop  offset="0.2454" style="stop-color:#BCDA20"/>
			<stop  offset="0.4194" style="stop-color:#ECEB09"/>
			<stop  offset="0.5055" style="stop-color:#FFF200"/>
			<stop  offset="0.5783" style="stop-color:#FBCA08"/>
			<stop  offset="0.6794" style="stop-color:#F79A11"/>
			<stop  offset="0.7753" style="stop-color:#F47419"/>
			<stop  offset="0.8635" style="stop-color:#F1581F"/>
			<stop  offset="0.9411" style="stop-color:#F04822"/>
			<stop  offset="1" style="stop-color:#EF4223"/>
		</linearGradient>
		<polygon fill="url(#SVGID_100_)" stroke="#000000" stroke-width="0.25" points="127.375244,12.291992 145.375244,12.291992 
			81.208252,108.458984 64.042236,108.458984 		"/>
	</g>
	<g>
		
			<linearGradient id="SVGID_101_" gradientUnits="userSpaceOnUse" x1="24.787842" y1="-11.448242" x2="24.78784" y2="39.551758" gradientTransform="matrix(1 0 0 -1 8.399902 97.009766)">
			<stop  offset="0.0604" style="stop-color:#53B848"/>
			<stop  offset="0.5549" style="stop-color:#65CCEC"/>
			<stop  offset="0.5832" style="stop-color:#61C3E7"/>
			<stop  offset="0.6882" style="stop-color:#55A7D8"/>
			<stop  offset="0.7933" style="stop-color:#4D92CD"/>
			<stop  offset="0.8976" style="stop-color:#4886C6"/>
			<stop  offset="1" style="stop-color:#4682C4"/>
		</linearGradient>
		<polygon fill="url(#SVGID_101_)" stroke="#000000" stroke-width="0.25" points="7.020752,57.458008 25.187744,57.458008 
			59.354736,108.458008 41.354736,108.458008 		"/>
		
			<linearGradient id="SVGID_102_" gradientUnits="userSpaceOnUse" x1="33.918701" y1="-11.400391" x2="114.876007" y2="85.080841" gradientTransform="matrix(1 0 0 -1 8.399902 97.009766)">
			<stop  offset="0" style="stop-color:#6EBE44"/>
			<stop  offset="0.0011" style="stop-color:#6EBE44"/>
			<stop  offset="0.2454" style="stop-color:#BCDA20"/>
			<stop  offset="0.4194" style="stop-color:#ECEB09"/>
			<stop  offset="0.5055" style="stop-color:#FFF200"/>
			<stop  offset="0.5783" style="stop-color:#FBCA08"/>
			<stop  offset="0.6794" style="stop-color:#F79A11"/>
			<stop  offset="0.7753" style="stop-color:#F47419"/>
			<stop  offset="0.8635" style="stop-color:#F1581F"/>
			<stop  offset="0.9411" style="stop-color:#F04822"/>
			<stop  offset="1" style="stop-color:#EF4223"/>
		</linearGradient>
		<polygon fill="url(#SVGID_102_)" stroke="#000000" stroke-width="0.25" points="105.708252,12.291016 123.708252,12.291016 
			59.542236,108.458008 42.375244,108.458008 		"/>
	</g>
</g>
</svg>
